<?xml version="1.0" encoding="UTF-8"?><svg id="Layer_1" xmlns="http://www.w3.org/2000/svg" xmlns:xlink="http://www.w3.org/1999/xlink" viewBox="0 0 480.6 178.91"><defs><style>.cls-1{fill:url(#linear-gradient);}.cls-2{fill:#797b7d;}.cls-3{fill:url(#linear-gradient-3);}.cls-4{fill:url(#linear-gradient-4);}.cls-5{fill:url(#linear-gradient-2);}.cls-6{fill:url(#linear-gradient-5);}</style><linearGradient id="linear-gradient" x1="-222.19" y1="2570.09" x2="-161.6" y2="2630.68" gradientTransform="translate(2471.84 -787.57) rotate(64.79)" gradientUnits="userSpaceOnUse"><stop offset="0" stop-color="#1b489c"/><stop offset="1" stop-color="#36c4f0"/></linearGradient><linearGradient id="linear-gradient-2" x1="-199.97" y1="2573.36" x2="-196.59" y2="2599.53" gradientTransform="translate(2471.84 -787.57) rotate(64.79)" gradientUnits="userSpaceOnUse"><stop offset=".14" stop-color="#00468f"/><stop offset=".31" stop-color="#00468f"/><stop offset="1" stop-color="#1556a6"/></linearGradient><linearGradient id="linear-gradient-3" x1="-261.46" y1="2527.84" x2="-261.46" y2="2453.2" xlink:href="#linear-gradient"/><linearGradient id="linear-gradient-4" x1="177.02" y1="-44.75" x2="191.55" y2="-58.07" gradientTransform="translate(-110.55 59.36) rotate(12)" xlink:href="#linear-gradient-2"/><linearGradient id="linear-gradient-5" x1="-285.48" y1="2553.36" x2="-176.93" y2="2553.36" gradientTransform="translate(2471.84 -787.57) rotate(64.79)" gradientUnits="userSpaceOnUse"><stop offset="0" stop-color="#246cb4"/><stop offset=".21" stop-color="#0378cd"/><stop offset=".82" stop-color="#36c4f0"/><stop offset="1" stop-color="#256fb7"/></linearGradient></defs><g><path class="cls-1" d="M47.17,158.13L3.43,178.72s-5.58,1.41-2.51-3.5c3.06-4.91,47.09-70.56,47.09-70.56l17.23,37.34-18.07,16.14Z"/><path class="cls-5" d="M46.88,108.42l-9.13,13.02s20.49,18.04,3.39,39.61c29.8-14.03,23.2-10.92,23.2-10.92,0,0-1.85-40.99-17.45-41.71Z"/><path class="cls-3" d="M84.45,20.78L128.19,.19s5.58-1.41,2.51,3.5c-3.06,4.91-47.09,70.56-47.09,70.56l-17.23-37.34,18.07-16.14Z"/><path class="cls-4" d="M85.62,70.34l9.13-13.02s-20.49-18.04-3.39-39.61c-29.8,14.03-23.2,10.92-23.2,10.92,0,0,1.85,40.99,17.45,41.71Z"/><path class="cls-6" d="M85.49,20.29L31.29,45.8s-9.45,4.78-5.07,14.09c3.38,7.19,28.98,61.56,28.98,61.56,0,0,14.23,25.9-14.32,39.81,13.62-6.41,56.48-26.74,59.64-28.23,3.16-1.49,7.62-9.39,3.77-17.57-4.28-9.1-25.33-54.35-25.33-54.35,0,0-14.35-25.58,6.53-40.82Z"/></g><g><path class="cls-2" d="M401.18,79.13v-1.33h-.03c-.3-9.27-3.75-17.1-10.37-23.59-6.8-6.8-15.19-10.26-25.18-10.26s-18.26,3.46-25.18,10.26c-6.93,6.8-10.39,15.06-10.39,24.92s3.46,18.26,10.39,25.05c6.93,6.8,15.32,10.13,25.18,10.13,5.24,0,10.03-.92,14.39-2.77v2.15h21.19v-34.56h0Zm-35.58,13.85c-7.6,0-13.32-5.73-13.32-13.86s5.73-13.86,13.32-13.86,13.46,5.73,13.46,13.86-5.6,13.86-13.46,13.86Z"/><path class="cls-2" d="M289.49,43.96c-4.84,0-9.32,.84-13.46,2.49V14.95h-22.12V80.77h.04c.36,9.16,3.81,17,10.36,23.42,6.93,6.8,15.32,10.13,25.18,10.13s18.39-3.33,25.18-10.13c6.93-6.8,10.4-15.19,10.4-25.05s-3.47-18.12-10.4-24.92c-6.8-6.8-15.19-10.26-25.18-10.26Zm0,49.04c-7.6,0-13.32-5.73-13.32-13.86s5.73-13.86,13.32-13.86,13.46,5.73,13.46,13.86-5.6,13.86-13.46,13.86Z"/><rect class="cls-2" x="406.74" y="15.18" width="22.12" height="98.48"/><path class="cls-2" d="M212.95,43.96c-9.86,0-18.26,3.46-25.18,10.26-6.93,6.8-10.39,15.06-10.39,24.92s3.46,18.26,10.39,25.05c6.93,6.8,15.32,10.13,25.18,10.13s18.39-3.33,25.18-10.13c6.93-6.8,10.4-15.19,10.4-25.05s-3.47-18.12-10.4-24.92c-6.8-6.8-15.19-10.26-25.18-10.26Zm0,49.04c-7.6,0-13.32-5.73-13.32-13.86s5.73-13.86,13.32-13.86,13.46,5.73,13.46,13.86-5.6,13.86-13.46,13.86Z"/><path class="cls-2" d="M480.18,67.01v-21.19h-13.86V27.17l-22.12,6.66v11.99h-9.99v21.19h9.99v19.85c0,10.53,2.67,17.86,7.99,21.99,5.46,4,14.79,5.2,27.98,3.6v-19.99c-9.99,.53-13.86-.27-13.86-6.13v-19.32h13.86Z"/><path class="cls-2" d="M149.23,92.99c-7.6,0-13.32-5.73-13.32-13.86s5.73-13.86,13.32-13.86c5.3,0,9.56,2.61,11.78,6.8l15.56-15.56c-.68-.78-1.39-1.55-2.15-2.3-6.8-6.8-15.19-10.26-25.18-10.26s-18.26,3.46-25.18,10.26c-6.93,6.8-10.39,15.06-10.39,24.92s3.46,18.26,10.39,25.05c6.93,6.8,15.32,10.13,25.18,10.13s18.39-3.33,25.18-10.13c.86-.84,1.66-1.71,2.41-2.59l-15.66-15.66c-2.18,4.35-6.52,7.07-11.93,7.07Z"/></g><g><path class="cls-2" d="M340.3,120.55v2.63h-6.59v2.73h5.93v2.52h-5.93v2.75h6.8v2.61h-9.76v-13.25h9.55Z"/><path class="cls-2" d="M348.82,133.8v-13.25h2.96v10.61h5.65v2.63h-8.6Z"/><path class="cls-2" d="M374.82,120.55v2.63h-6.59v2.73h5.93v2.52h-5.93v2.75h6.8v2.61h-9.76v-13.25h9.55Z"/><path class="cls-2" d="M389.43,131.18c1.45,0,2.64-.57,3.56-1.73l1.89,1.95c-1.5,1.69-3.27,2.54-5.32,2.54s-3.72-.65-5.04-1.93c-1.32-1.29-1.98-2.92-1.98-4.88s.67-3.6,2.02-4.92c1.35-1.31,2.99-1.97,4.94-1.97,2.17,0,3.99,.83,5.46,2.48l-1.84,2.08c-.94-1.16-2.1-1.74-3.49-1.74-1.11,0-2.06,.36-2.85,1.09-.79,.73-1.18,1.71-1.18,2.94s.37,2.22,1.12,2.97,1.65,1.12,2.71,1.12Z"/><path class="cls-2" d="M408.51,123.11v10.69h-2.96v-10.69h-3.75v-2.56h10.46v2.56h-3.75Z"/><path class="cls-2" d="M430.85,124.95c0,2.12-.84,3.49-2.52,4.11l3.35,4.74h-3.64l-2.94-4.23h-2.05v4.23h-2.96v-13.25h5.02c2.06,0,3.53,.35,4.4,1.04s1.32,1.81,1.32,3.35Zm-3.56,1.57c.37-.33,.55-.85,.55-1.56s-.19-1.2-.57-1.47c-.38-.27-1.04-.4-1.99-.4h-2.22v3.92h2.16c1.01,0,1.7-.16,2.07-.49Z"/><path class="cls-2" d="M439.57,120.55h2.96v13.25h-2.96v-13.25Z"/><path class="cls-2" d="M457.56,131.18c1.45,0,2.64-.57,3.56-1.73l1.89,1.95c-1.5,1.69-3.27,2.54-5.32,2.54s-3.72-.65-5.04-1.93c-1.32-1.29-1.98-2.92-1.98-4.88s.67-3.6,2.02-4.92c1.35-1.31,2.99-1.97,4.94-1.97,2.17,0,3.99,.83,5.46,2.48l-1.84,2.08c-.94-1.16-2.1-1.74-3.49-1.74-1.11,0-2.06,.36-2.85,1.09-.79,.73-1.18,1.71-1.18,2.94s.37,2.22,1.12,2.97,1.65,1.12,2.71,1.12Z"/><path class="cls-2" d="M474.13,123.2c-.28,.23-.43,.54-.43,.93s.17,.69,.52,.92c.35,.23,1.15,.49,2.41,.81,1.26,.31,2.23,.77,2.93,1.39,.7,.62,1.04,1.52,1.04,2.71s-.44,2.15-1.34,2.89c-.89,.74-2.06,1.11-3.51,1.11-2.1,0-3.99-.78-5.67-2.33l1.76-2.16c1.43,1.25,2.75,1.88,3.96,1.88,.54,0,.97-.12,1.28-.35,.31-.23,.46-.55,.46-.95s-.16-.71-.49-.95c-.33-.23-.98-.47-1.95-.71-1.54-.37-2.67-.84-3.38-1.43-.71-.59-1.07-1.51-1.07-2.77s.45-2.23,1.35-2.91c.9-.68,2.03-1.02,3.38-1.02,.89,0,1.77,.15,2.65,.46,.88,.3,1.65,.73,2.31,1.29l-1.5,2.16c-1.15-.87-2.34-1.31-3.56-1.31-.49,0-.88,.12-1.17,.35Z"/></g></svg>